<svg xmlns="http://www.w3.org/2000/svg" viewBox="46 42 178 178" width="64" height="64">
  <!-- Símbolo da Transppass: o mesmo desenho de components/brand/transppass-logo.tsx. -->
  <style>
    .p { fill: #444544; }
    @media (prefers-color-scheme: dark) { .p { fill: #f4f4f2; } }
  </style>
  <circle cx="118" cy="72" r="18.5" fill="#f87509"/>
  <path class="p" d="M84 95 H170 C184 95 194 106 194 122 V134 C194 152 184 164 168 167 L152 169 Q144 170 146 162 L150 150 H162 C168 150 170 144 170 136 V128 C170 122 166 120 160 120 H130 V208 Q130 215 123 215 H115 Q108 215 108 208 V120 H84 Q76 120 76 112 V103 Q76 95 84 95 Z"/>
</svg>
